PathFileType	4	(X/Y/Z)	TRC_missing_Z7
DataRate	CameraRate	NumFrames	NumMarkers	Units	OrigDataRate	OrigDataStartFrame	OrigNumFrames
100.00	100.00	       4	45	mm	100.00	327	       2609
Frame#	Time	T10			C7			CLAV			RACR1			LACR1			RPSI			LPSI			RASI			LASI			LTH2			LTH3			LTH1			RTH2			RTH3			RTH1			RLFC			RTB1			RTB3			RTB2			LLFC			LTB1			LTB3			LTB2			LLMAL			LCAL			RLMAL			RCAL			RMT5			RMT1			LMT5			LMT1			*31			*32			*33			*34			*35			*36			*37			*38			*39			*40			*41			*42			*43			*44			
		X1	Y1	Z1	X2	Y2	Z2	X3	Y3	Z3	X4	Y4	Z4	X5	Y5	Z5	X6	Y6	Z6	X7	Y7	X8	Y8	Z8	X9	Y9	Z9	X10	Y10	Z10	X11	Y11	Z11	X12	Y12	Z12	X13	Y13	Z13	X14	Y14	Z14	X15	Y15	Z15	X16	Y16	Z16	X17	Y17	Z17	X18	Y18	Z18	X19	Y19	Z19	X20	Y20	Z20	X21	Y21	Z21	X22	Y22	Z22	X23	Y23	Z23	X24	Y24	Z24	X25	Y25	Z25	X26	Y26	Z26	X27	Y27	Z27	X28	Y28	Z28	X29	Y29	Z29	X30	Y30	Z30	X31	Y31	Z31	X32	Y32	Z32	X33	Y33	Z33	X34	Y34	Z34	X35	Y35	Z35	X36	Y36	Z36	X37	Y37	Z37	X38	Y38	Z38	X39	Y39	Z39	X40	Y40	Z40	X41	Y41	Z41	X42	Y42	Z42	X43	Y43	Z43	X44	Y44	Z44	X45	Y45	Z45	
327	3.260000	765.386597	1222.419189	-585.890686	758.474243	1473.325806	-448.864960	760.029419	1309.884888	-358.366852	598.225525	1420.583252	-430.881958	934.000977	1412.871582	-424.928986	697.734619	1007.772339	-667.020569	785.230652	1018.885254	-663.157410	621.325195	960.987244	-440.301147	875.051147	961.470032	-430.176880	919.434509	756.061279	-525.370239	900.991394	690.142517	-530.350342	899.814209	827.601501	-463.506439	599.917542	737.787842	-364.184662	558.673096	785.254272	-423.316681	633.232239	841.038574	-401.886200	591.470276	519.647949	-349.768646	630.731506	420.574524	-285.610687	613.192322	340.224121	-305.848572	637.947144	289.955353	-291.858124	877.192383	499.091034	-650.156189	821.851257	381.389069	-649.915588	848.475586	323.275421	-692.177979	804.272034	273.209106	-701.779846	816.053528	104.773254	-822.864563	770.294189	78.233429	-887.590393	636.225220	91.122604	-327.321198	686.999817	41.625668	-378.402893	628.151245	67.833817	-215.253464	698.270691	82.712746	-187.571289	837.879333	39.180668	-716.175903	765.510132	52.003094	-685.343811	922.196167	1057.255493	401.321411	0.000000	0.000000	0.000000	926.276306	1070.181274	353.942627	920.771179	1054.255249	444.369202	0.000000	0.000000	0.000000	0.000000	0.000000	0.000000	567.836853	2308.504883	-567.039124	-17.958925	12.262518	-1119.673218	1151.571167	12.614752	-1033.573730	-0.724410	11.990675	1.084695	1167.693115	12.454397	85.350693	0.000000	0.000000	0.000000	0.000000	0.000000	0.000000	0.000000	0.000000	0.000000	
328	3.270000	764.544250	1221.623169	-585.195984	757.431641	1472.686646	-448.508057	759.060852	1309.286377	-357.818634	597.174500	1419.756958	-430.696777	932.930176	1412.329590	-424.408508	696.345154	1007.116394	-665.922180	783.859009	1018.319092	-662.283752	620.648560	960.272095	-439.048248	874.467285	960.658997	-429.511414	921.720154	756.185059	-527.869019	900.391968	689.707397	-532.436462	899.167053	826.586853	-463.957611	600.679749	736.474487	-363.308167	558.875305	783.999146	-421.894562	633.256348	840.037659	-400.554108	592.790405	518.450745	-348.765808	632.479248	420.009705	-283.247040	614.595764	339.099304	-301.952606	639.394165	288.981323	-287.262787	876.758606	499.485840	-653.652649	821.704651	381.623779	-654.672363	848.465698	324.095703	-697.628540	804.313538	274.010193	-707.668396	816.237305	106.747940	-830.527649	770.385132	81.212738	-895.626465	636.983582	89.228210	-319.371643	687.304016	38.804424	-370.229462	629.750183	67.736298	-206.759369	699.992737	82.870262	-179.711929	837.778748	39.113998	-724.663391	765.549377	51.982395	-693.705994	922.179199	1056.914917	402.281982	0.000000	0.000000	0.000000	926.269592	1070.164795	353.942291	920.625305	1054.255005	436.844635	0.000000	0.000000	0.000000	0.000000	0.000000	0.000000	0.000000	0.000000	0.000000	-17.958607	12.265035	-1119.674438	1151.571167	12.614812	-1033.573730	-0.724232	11.990509	1.084872	1167.693237	12.454456	85.350761	0.000000	0.000000	0.000000	0.000000	0.000000	0.000000	0.000000	0.000000	0.000000	
329	3.280000	763.639221	1220.844849	-584.379211	756.327881	1472.074219	-448.042511	758.050964	1308.717041	-357.153076	596.066589	1418.942017	-430.353516	931.809937	1411.821533	-423.808258	694.921692	1006.480286	-664.688293	782.458801	1017.745972	-661.271606	619.933411	959.582336	-437.657135	873.838562	959.855408	-428.715424	924.005249	756.365967	-530.188904	899.811218	689.228882	-534.291687	898.479370	825.578247	-464.221893	601.485962	735.154480	-362.262726	559.096069	782.752502	-420.291077	633.294739	839.034241	-399.052979	594.065918	517.215637	-347.761414	634.249084	419.280243	-281.293121	616.018066	337.938354	-298.723236	640.874634	287.961914	-283.567017	876.304565	499.822723	-656.790283	821.566467	381.803650	-659.125183	848.473633	324.904510	-702.817627	804.387573	274.801208	-713.334778	816.496704	108.822266	-838.104919	770.539063	84.355537	-903.577209	637.767944	87.593155	-313.159271	687.613403	36.493835	-363.999878	631.391479	67.435921	-200.206879	701.786072	82.676697	-173.750412	837.690308	39.030266	-733.161682	765.612854	51.948696	-702.064758	922.156311	1056.529053	403.495728	927.054382	1073.184814	338.091248	926.268127	1070.161133	353.942200	920.490662	1054.297485	429.163605	0.000000	0.000000	0.000000	0.000000	0.000000	0.000000	0.000000	0.000000	0.000000	-17.958290	12.267541	-1119.675659	1151.571167	12.614874	-1033.573608	-0.724055	11.990343	1.085047	1167.693359	12.454516	85.350822	0.000000	0.000000	0.000000	0.000000	0.000000	0.000000	0.000000	0.000000	0.000000	
330	3.290000	762.674805	1220.091431	-583.441345	755.167236	1471.495117	-447.468323	757.000488	1308.184082	-356.369995	594.905212	1418.148315	-429.854065	930.643982	1411.352417	-423.124542	693.466919	1005.871460	-663.321472	781.032654	1017.170837	-660.122742	619.178650	958.928162	-436.130707	873.162903	959.065186	-427.790710	926.091370	756.535583	-532.197205	899.242188	688.704468	-535.904175	897.747314	824.581848	-464.290802	602.329651	733.854309	-361.037506	559.329041	781.535889	-418.501923	633.342712	838.048889	-397.382874	595.292297	515.962463	-346.739746	636.031799	418.397308	-279.731934	617.451233	336.744324	-296.147949	642.379456	286.893707	-280.754608	875.836914	500.095123	-659.549561	821.446106	381.923584	-663.253174	848.506592	325.698914	-707.723206	804.504395	275.579193	-718.756775	816.840637	111.000168	-845.574402	770.762939	87.672661	-911.411560	638.570618	86.188187	-308.673370	687.921448	34.658531	-359.700989	633.048523	66.911682	-195.570160	703.625610	82.111595	-169.649460	837.614014	38.929813	-741.678772	765.701172	51.897625	-710.426697	922.126831	1056.111572	404.968964	927.054382	1073.184814	338.091248	0.000000	0.000000	0.000000	920.371765	1054.379761	421.539703	920.089111	1055.154541	455.230865	271.259674	1036.482422	618.767334	0.000000	0.000000	0.000000	-17.957973	12.270038	-1119.676880	1151.571045	12.614938	-1033.573608	-0.723879	11.990178	1.085219	1167.693481	12.454577	85.350891	0.000000	0.000000	0.000000	0.000000	0.000000	0.000000	0.000000	0.000000	0.000000	
